<?xml version="1.0" standalone="no"?>
<!DOCTYPE svg PUBLIC "-//W3C//DTD SVG 1.1//EN" "http://www.w3.org/Graphics/SVG/1.1/DTD/svg11.dtd" >
<svg xmlns="http://www.w3.org/2000/svg" xmlns:xlink="http://www.w3.org/1999/xlink" version="1.1">
<metadata></metadata>
<defs>
<font id="grtsk_gigabold_italic" horiz-adv-x="1568" >
<font-face units-per-em="2048" ascent="1536" descent="-512" />
<missing-glyph horiz-adv-x="634" />
<glyph horiz-adv-x="0" />
<glyph horiz-adv-x="0" />
<glyph horiz-adv-x="682" />
<glyph unicode="&#xd;" horiz-adv-x="682" />
<glyph unicode=" "  horiz-adv-x="634" />
<glyph unicode="&#x09;" horiz-adv-x="634" />
<glyph unicode="&#xa0;" horiz-adv-x="634" />
<glyph unicode="!" horiz-adv-x="894" d="M68 0l90 336h458l-90 -336h-458zM217 451l232 983h466l-294 -983h-404z" />
<glyph unicode="&#x22;" horiz-adv-x="1351" d="M215 678l182 756h412l-223 -756h-371zM831 678l183 756h409l-223 -756h-369z" />
<glyph unicode="#" horiz-adv-x="2525" d="M-27 285l82 303h461l168 258h-399l80 303h520l186 285h442l-186 -285h520l187 285h444l-188 -285h346l-82 -303h-463l-170 -258h408l-82 -303h-525l-188 -285h-442l186 285h-520l-187 -285h-442l186 285h-342zM958 588h521l168 258h-521z" />
<glyph unicode="$" horiz-adv-x="2277" d="M49 418l508 71q9 -89 107.5 -136t300.5 -56l69 258l-276 14q-268 20 -400.5 113t-132.5 252q0 93 37 171.5t117.5 144.5t202 112t298 72t396.5 26l37 137h186l-37 -141q769 -38 781 -416l-461 -71q-9 78 -105 119.5t-301 48.5l-67 -250l301 -13q273 -20 405.5 -110.5 t132.5 -255.5q0 -91 -33.5 -168t-113.5 -146t-202 -117t-309 -76t-425 -28l-37 -137h-186l37 141q-403 19 -606.5 125t-223.5 316zM700 1008q0 -49 53 -71t210 -34l161 -8l66 244q-201 -3 -310.5 -19.5t-144.5 -42.5t-35 -69zM1151 295q207 3 323.5 19t157.5 41.5t41 68.5 q0 39 -18.5 59t-79 33.5t-186.5 22.5l-170 8z" />
<glyph unicode="%" horiz-adv-x="2883" d="M76 0l2261 1434h551l-2259 -1434h-553zM233 1026q0 86 45.5 163.5t129 136.5t212 93.5t283.5 34.5q258 0 388 -82.5t130 -236.5q0 -81 -44.5 -156.5t-126.5 -136t-211.5 -97t-286.5 -36.5q-257 0 -388 81.5t-131 235.5zM600 1061q0 -53 44.5 -79t150.5 -26 q127 0 193.5 43t66.5 105q0 51 -45 76.5t-150 25.5q-128 0 -194 -42t-66 -103zM1548 297q0 86 45.5 163.5t129 136.5t212 93.5t283.5 34.5q258 0 388 -82.5t130 -236.5q0 -81 -44.5 -156.5t-126.5 -136t-212 -97t-287 -36.5q-257 0 -387.5 81.5t-130.5 235.5zM1917 332 q0 -53 43.5 -79t148.5 -26q128 0 194.5 43t66.5 105q0 51 -44.5 76.5t-148.5 25.5q-128 0 -194 -42t-66 -103z" />
<glyph unicode="&#x26;" horiz-adv-x="2482" d="M33 362q0 73 25 133t83 115.5t161 102.5t251 84q-121 115 -121 241q0 187 195.5 304.5t546.5 117.5q296 0 476.5 -90.5t180.5 -251.5q0 -130 -121 -227t-385 -160l320 -213q155 108 249 250l410 -68q-111 -215 -356 -387l467 -313h-650l-188 121q-387 -148 -809 -148 q-160 0 -286 20.5t-209.5 56t-138 85.5t-78 106t-23.5 121zM522 438q0 -69 69.5 -107t237.5 -38q208 0 404 47l-426 272q-163 -26 -224 -69t-61 -105zM889 1051q0 -35 28.5 -63.5t120.5 -82.5q97 15 164 31.5t104 31t56.5 33t24 32.5t4.5 36q0 48 -56 75t-170 27 q-276 0 -276 -120z" />
<glyph unicode="'" horiz-adv-x="737" d="M215 678l182 756h412l-223 -756h-371z" />
<glyph unicode="(" horiz-adv-x="1011" d="M135 301q0 314 149.5 589t483.5 544h438q-350 -318 -501.5 -585.5t-151.5 -522.5q0 -300 186 -633h-401q-203 294 -203 608z" />
<glyph unicode=")" horiz-adv-x="1011" d="M-190 -307q356 334 503.5 588.5t147.5 515.5q0 303 -185 637h402q201 -301 201 -625q0 -293 -150 -566.5t-479 -549.5h-440z" />
<glyph unicode="*" horiz-adv-x="1173" d="M186 979l90 295l297 -117l-34 291h321l-35 -291l295 117l90 -295l-295 -49l207 -205l-239 -190l-185 272l-182 -272l-240 190l205 203z" />
<glyph unicode="+" d="M137 575l82 306h465l82 307h373l-82 -307h467l-82 -306h-467l-82 -307h-373l82 307h-465z" />
<glyph unicode="," horiz-adv-x="825" d="M-72 -381l45 231q127 2 177 31t79 119h-194l100 373h459l-90 -336q-34 -124 -75 -201.5t-107.5 -130t-160.5 -72t-233 -14.5z" />
<glyph unicode="-" horiz-adv-x="1263" d="M59 436l95 350h1079l-94 -350h-1080z" />
<glyph unicode="." horiz-adv-x="825" d="M35 0l100 373h459l-100 -373h-459z" />
<glyph unicode="/" horiz-adv-x="1142" d="M-279 -307l1170 1741h461l-1170 -1741h-461z" />
<glyph unicode="0" horiz-adv-x="2361" d="M127 578q0 142 51.5 272.5t156.5 241.5t253.5 193t354 128.5t446.5 46.5q454 0 691.5 -158t237.5 -456q0 -135 -52 -262t-158.5 -238t-255.5 -194t-356.5 -131t-448.5 -48q-448 0 -684 157t-236 448zM594 610q0 -150 116 -219t394 -69q183 0 329 41.5t235.5 112 t136 157.5t46.5 184q0 156 -116 225.5t-398 69.5q-181 0 -326 -42.5t-234 -113.5t-136 -160t-47 -186z" />
<glyph unicode="1" horiz-adv-x="2023" d="M-33 0l92 348h768l191 717l-727 -109l96 359l799 119h385l-291 -1086h645l-92 -348h-1866z" />
<glyph unicode="2" horiz-adv-x="2080" d="M-33 0l92 342l996 344q251 85 374 139.5t157 89.5t34 84q0 66 -91 95.5t-306 29.5q-244 0 -384.5 -55t-201.5 -170l-449 82q126 242 393 360.5t685 118.5q845 0 845 -413q0 -74 -23.5 -132.5t-84.5 -120t-169 -119.5t-276 -123.5t-407 -139.5l-188 -64h979l-93 -348 h-1882z" />
<glyph unicode="3" horiz-adv-x="2166" d="M16 418l469 90q3 -113 120 -165t376 -52q165 0 278 12.5t171 36.5t81 51t23 62q0 39 -19.5 62t-72 35.5t-144.5 12.5h-600l86 318h598q163 0 232 34.5t69 100.5q0 46 -34.5 72t-130.5 40.5t-269 14.5q-290 0 -427 -47.5t-185 -157.5l-432 90q112 221 369.5 326.5 t713.5 105.5q453 0 672 -91t219 -282q0 -128 -96.5 -217t-310.5 -137q268 -61 268 -280q0 -105 -62.5 -191t-189 -151.5t-334.5 -101.5t-483 -36q-483 0 -715 108.5t-240 336.5z" />
<glyph unicode="4" horiz-adv-x="2213" d="M-43 240l88 323l1587 871h447l-232 -869h324l-88 -325h-324l-63 -240h-445l64 240h-1358zM631 565h772l129 484z" />
<glyph unicode="5" horiz-adv-x="2131" d="M33 340l477 102q10 -76 126.5 -104.5t375.5 -28.5q151 0 259.5 15.5t168.5 43.5t87 62t27 76q0 52 -34.5 82t-135.5 46.5t-286 16.5q-437 0 -549 -94l-402 35l338 842h1661l-84 -308h-1274l-114 -284q119 56 260 80t330 24q402 0 578.5 -100t176.5 -311q0 -99 -34 -182.5 t-111.5 -154.5t-195 -120t-292 -77t-395.5 -28q-401 0 -655.5 90.5t-302.5 276.5z" />
<glyph unicode="6" horiz-adv-x="2236" d="M123 545q0 151 50.5 287.5t153 251.5t248 198.5t345.5 130.5t436 47q422 0 647 -89t266 -277l-473 -95q-15 68 -126 98.5t-339 30.5q-315 0 -487.5 -90.5t-241.5 -296.5q123 81 305.5 122.5t399.5 41.5q419 0 616 -94.5t197 -294.5q0 -93 -38 -173.5t-122 -149t-209 -117 t-306.5 -76t-406.5 -27.5q-246 0 -422 36.5t-284.5 110t-158.5 178t-50 247.5zM598 430q0 -47 36 -72.5t144.5 -39t313.5 -13.5q544 0 544 164q0 50 -34 77.5t-135.5 42.5t-292.5 15q-576 0 -576 -174z" />
<glyph unicode="7" horiz-adv-x="1890" d="M190 1085l95 349h1794l-90 -334l-1229 -1100h-559l1247 1085h-1258z" />
<glyph unicode="8" horiz-adv-x="2256" d="M41 360q0 134 122.5 230.5t358.5 148.5q-248 89 -248 275q0 98 66 178.5t196.5 141t339 93.5t478.5 33q439 0 664 -88t225 -285q0 -118 -100 -208.5t-298 -145.5q287 -83 287 -289q0 -104 -62.5 -188t-194 -148.5t-353.5 -99.5t-523 -35q-492 0 -725 97.5t-233 289.5z M535 410q0 -63 118 -90t412 -27q171 0 287.5 11t178 32t86.5 47t25 61q0 44 -40 68t-153.5 37.5t-322.5 13.5q-179 0 -297 -10t-181.5 -31t-88 -47t-24.5 -65zM750 997q0 -57 106 -81.5t356 -24.5q155 0 261 9.5t163.5 28.5t81 43.5t23.5 57.5q0 59 -106 85t-353 26 q-157 0 -262.5 -9.5t-163.5 -29t-82 -44.5t-24 -61z" />
<glyph unicode="9" horiz-adv-x="2232" d="M61 340l474 94q28 -129 421 -129q321 0 507.5 94t256.5 295q-125 -80 -312.5 -123t-412.5 -43q-394 0 -592 96.5t-198 297.5q0 92 37.5 171.5t121 147.5t208 116.5t307.5 75.5t411 27q242 0 415.5 -36.5t281.5 -109.5t158 -176.5t50 -244.5q0 -155 -53.5 -294 t-159.5 -253t-255 -197.5t-350 -129.5t-435 -46q-409 0 -626.5 90t-254.5 277zM688 961q0 -48 35 -75t140 -42t300 -15q282 0 419.5 47.5t137.5 127.5q0 46 -42.5 72t-149 39t-295.5 13q-157 0 -266.5 -12.5t-168.5 -36t-84.5 -52t-25.5 -66.5z" />
<glyph unicode=":" horiz-adv-x="849" d="M35 0l100 373h459l-100 -373h-459zM260 754l100 372h459l-100 -372h-459z" />
<glyph unicode=";" horiz-adv-x="849" d="M-72 -381l45 231q127 2 177 31t79 119h-194l100 373h459l-90 -336q-34 -124 -75 -201.5t-107.5 -130t-160.5 -72t-233 -14.5zM260 754l100 372h459l-100 -372h-459z" />
<glyph unicode="&#x3c;" d="M125 555l88 326l1427 458l-108 -385l-887 -249l758 -263l-96 -346z" />
<glyph unicode="=" d="M72 330l82 305h1302l-80 -305h-1304zM203 821l82 305h1304l-82 -305h-1304z" />
<glyph unicode="&#x3e;" d="M16 96l105 393l870 250l-739 250l96 350l1182 -458l-88 -326z" />
<glyph unicode="?" horiz-adv-x="1992" d="M158 969q81 232 362.5 361.5t726.5 129.5q202 0 355.5 -30t246.5 -84.5t139 -125.5t46 -157q0 -80 -36 -142t-95 -100.5t-135.5 -70t-156.5 -51.5t-159 -44.5t-142.5 -48.5t-106.5 -64t-52 -91h-459q16 77 56 140.5t94 106.5t119 77t133.5 56.5t135.5 41t126.5 33.5 t104.5 30.5t71.5 36.5t26.5 47q0 24 -14 41t-51.5 31t-110.5 21t-183 7q-511 0 -592 -225zM571 0l91 336h458l-90 -336h-459z" />
<glyph unicode="@" horiz-adv-x="2979" d="M82 303q0 127 32 248t98 233.5t161 210.5t226 179t288 138.5t352.5 89.5t413.5 32q300 0 533 -56t380.5 -158t223 -241t75.5 -309q0 -193 -84 -349t-245.5 -248.5t-374.5 -92.5q-187 0 -303 49.5t-144 144.5q-236 -203 -581 -203q-213 0 -322 71t-109 189q0 59 18 106.5 t62 91t114.5 75t179.5 54.5t253 34l469 33q17 82 -37.5 121.5t-173.5 39.5q-150 0 -221.5 -33t-99.5 -112l-420 43q55 117 145 191.5t243.5 115.5t373.5 41q127 0 227.5 -14.5t170.5 -42t118 -66.5t69 -88.5t24 -108t-17 -124.5l-72 -264q-22 -85 9 -123.5t122 -38.5 q55 0 111.5 21t109 64t93.5 102t66 141.5t25 175.5q0 106 -36 196t-114 165.5t-195 128.5t-286 82.5t-380 29.5q-263 0 -486.5 -51t-384 -140.5t-274 -210t-168.5 -261.5t-55 -294q0 -275 229.5 -427t677.5 -152q370 0 756 102l16 -164q-356 -106 -784 -106 q-288 0 -500.5 51t-342.5 149t-192.5 232t-62.5 307zM1126 299q-5 -39 28 -61.5t108 -22.5q185 0 317.5 62t173.5 159l-465 -39q-82 -7 -120.5 -31t-41.5 -67z" />
<glyph unicode="A" horiz-adv-x="2383" d="M-150 0l1344 1434h465l575 -1434h-475l-98 258h-1043l-237 -258h-531zM918 582h618l-182 473z" />
<glyph unicode="B" horiz-adv-x="2367" d="M68 0l385 1434h1394q212 0 332.5 -86.5t120.5 -243.5q0 -277 -340 -373q235 -60 235 -285q0 -202 -166.5 -324t-476.5 -122h-1484zM592 301h936q99 0 152 38.5t53 104.5q0 125 -160 125h-907zM745 872h895q95 0 148 39.5t53 104.5q0 117 -145 117h-879z" />
<glyph unicode="C" horiz-adv-x="2359" d="M131 594q0 148 56 279.5t166.5 238.5t264.5 185t358.5 120.5t440.5 42.5q453 0 697.5 -126.5t259.5 -370.5l-469 -95q-8 124 -136 184t-391 60q-157 0 -287 -25.5t-219 -69.5t-150.5 -104.5t-89.5 -128t-28 -141.5q0 -321 559 -321q243 0 398 61t237 190l449 -90 q-92 -175 -236.5 -286t-370 -167.5t-542.5 -56.5q-468 0 -717.5 161.5t-249.5 459.5z" />
<glyph unicode="D" horiz-adv-x="2451" d="M68 0l385 1434h1153q365 0 564.5 -158t199.5 -453q0 -170 -69.5 -320.5t-194 -262t-309 -176t-402.5 -64.5h-1327zM614 348h766q119 0 218.5 36.5t164 98t100 139.5t35.5 162q0 153 -84 227t-258 74h-745z" />
<glyph unicode="E" horiz-adv-x="2148" d="M68 0l385 1434h1804l-86 -322h-1366l-60 -221h1225l-86 -320h-1222l-68 -249h1380l-86 -322h-1820z" />
<glyph unicode="F" horiz-adv-x="2111" d="M68 0l385 1434h1804l-92 -349h-1354l-74 -274h1211l-93 -346h-1210l-125 -465h-452z" />
<glyph unicode="G" horiz-adv-x="2498" d="M133 596q0 184 89.5 342.5t252.5 274t406.5 181.5t537.5 66q452 0 696 -123t261 -360l-471 -92q-8 116 -135.5 171.5t-391.5 55.5q-157 0 -287 -25.5t-219 -69.5t-150.5 -104.5t-89.5 -128t-28 -141.5q0 -321 572 -321q246 0 409.5 45.5t259.5 142.5h-639l80 299h1118 l-217 -809h-348l25 244q-152 -131 -363.5 -201t-464.5 -70q-455 0 -679 160.5t-224 462.5z" />
<glyph unicode="H" horiz-adv-x="2523" d="M68 0l385 1434h452l-141 -527h1182l141 527h453l-383 -1434h-455l149 559h-1181l-150 -559h-452z" />
<glyph unicode="I" horiz-adv-x="888" d="M68 0l385 1434h452l-385 -1434h-452z" />
<glyph unicode="J" horiz-adv-x="1449" d="M-55 10l78 342q172 -22 335 -22q142 0 238 35t146.5 96.5t76.5 156.5l217 816h455l-229 -852q-44 -164 -110.5 -276.5t-171.5 -188t-250.5 -110t-346.5 -34.5q-232 0 -438 37z" />
<glyph unicode="K" horiz-adv-x="2314" d="M68 0l385 1434h448l-156 -586l1049 586h711l-1198 -664l886 -770h-641l-645 551l-284 -158l-105 -393h-450z" />
<glyph unicode="L" horiz-adv-x="1898" d="M68 0l385 1434h452l-291 -1086h1141l-94 -348h-1593z" />
<glyph unicode="M" horiz-adv-x="2902" d="M68 0l385 1434h467l516 -877l995 877h487l-385 -1434h-438l227 846l-753 -656h-377l-434 742l-250 -932h-440z" />
<glyph unicode="N" horiz-adv-x="2463" d="M68 0l385 1434h438l895 -1004l268 1004h426l-383 -1434h-438l-895 1004l-270 -1004h-426z" />
<glyph unicode="O" horiz-adv-x="2469" d="M133 592q0 146 54 276.5t163.5 238.5t265 187t368.5 122.5t464 43.5q471 0 724 -163t253 -459q0 -116 -38.5 -225t-112 -205t-186.5 -176t-256 -137.5t-327.5 -89.5t-394.5 -32q-472 0 -724.5 161.5t-252.5 457.5zM602 625q0 -103 53 -168t178 -100t330 -35 q192 0 345.5 39.5t249 107t146 152.5t50.5 180q0 106 -53 173t-178 102.5t-332 35.5q-153 0 -283.5 -26.5t-222 -73t-156.5 -108.5t-96 -132.5t-31 -146.5z" />
<glyph unicode="P" horiz-adv-x="2248" d="M68 0l385 1434h1206q278 0 430 -125.5t152 -350.5q0 -273 -215.5 -434.5t-587.5 -161.5h-820l-98 -362h-452zM711 707h766q144 0 217 56.5t73 156.5q0 87 -53.5 128.5t-165.5 41.5h-735z" />
<glyph unicode="Q" horiz-adv-x="2525" d="M133 592q0 146 54 276.5t163.5 238.5t265 187t368.5 122.5t464 43.5q472 0 724.5 -162.5t252.5 -459.5q0 -220 -128 -404t-372 -301l197 -297h-510l-115 168q-181 -31 -387 -31q-472 0 -724.5 161.5t-252.5 457.5zM602 625q0 -103 53 -168t178 -100t330 -35q77 0 144 6 l-162 247h487l88 -133q116 67 175 161t59 198q0 106 -53 173t-178 102.5t-332 35.5q-194 0 -348 -40.5t-248.5 -109.5t-143.5 -155t-49 -182z" />
<glyph unicode="R" horiz-adv-x="2254" d="M68 0l385 1434h1267q250 0 384 -112.5t134 -324.5q0 -144 -81 -256.5t-220 -177.5t-319 -82l412 -481h-533l-387 451h-469l-121 -451h-452zM731 782h799q121 0 183.5 47.5t62.5 128.5q0 146 -187 146h-772z" />
<glyph unicode="S" horiz-adv-x="2271" d="M49 418l506 71q12 -99 134.5 -146.5t379.5 -47.5q244 0 378 15t180 41.5t46 72.5q0 39 -19 58t-78 32t-187 25l-631 32q-533 42 -533 367q0 117 60 210t184.5 164t332 109.5t486.5 38.5q951 0 963 -420l-469 -71q-11 88 -131 129t-387 41q-176 0 -289.5 -8t-172.5 -26 t-80.5 -40.5t-21.5 -56.5q0 -33 21 -51.5t77.5 -31t164.5 -20.5l647 -31q274 -23 406 -112t132 -252q0 -91 -34 -168.5t-114 -146.5t-202.5 -117.5t-309 -76.5t-423.5 -28q-496 0 -745 107t-271 338z" />
<glyph unicode="T" horiz-adv-x="2101" d="M199 1085l94 349h1984l-94 -349h-766l-291 -1085h-452l291 1085h-766z" />
<glyph unicode="U" horiz-adv-x="2351" d="M196 538q-1 12 0 24q0 91 29 192l183 680h452l-178 -670q-21 -76 -21 -139q0 -121 76 -193q115 -110 375 -110q261 0 433.5 106.5t232.5 325.5l182 680h453l-187 -695q-107 -403 -391 -584.5t-774 -181.5q-169 0 -308.5 26t-240.5 75t-172.5 118.5t-105.5 156.5t-38 189z " />
<glyph unicode="V" horiz-adv-x="2277" d="M238 1434h483l356 -1000l897 1000h533l-1286 -1434h-465z" />
<glyph unicode="W" horiz-adv-x="3086" d="M238 1434h448l152 -926l667 926h467l201 -932l641 932h504l-1012 -1434h-440l-221 991l-727 -991h-431z" />
<glyph unicode="X" horiz-adv-x="2091" d="M-152 0l940 750l-536 684h551l346 -447l555 447h602l-926 -721l564 -713h-547l-369 467l-577 -467h-603z" />
<glyph unicode="Y" horiz-adv-x="2091" d="M207 1434h536l373 -543l645 543h592l-1087 -918l-140 -516h-452l147 549z" />
<glyph unicode="Z" horiz-adv-x="2125" d="M-49 0l84 309l1415 791h-1186l88 334h1909l-80 -293l-1448 -809h1233l-90 -332h-1925z" />
<glyph unicode="[" horiz-adv-x="1093" d="M-14 -307l467 1741h831l-76 -287h-424l-311 -1167h422l-76 -287h-833z" />
<glyph unicode="\" horiz-adv-x="1153" d="M262 1434h422l287 -1741h-424z" />
<glyph unicode="]" horiz-adv-x="1093" d="M-188 -307l77 287h422l314 1167h-424l78 287h833l-467 -1741h-833z" />
<glyph unicode="^" horiz-adv-x="1595" d="M68 573l716 861h496l256 -861h-401l-154 580l-459 -580h-454z" />
<glyph unicode="_" horiz-adv-x="1441" d="M-193 -350l95 350h1339l-94 -350h-1340z" />
<glyph unicode="`" horiz-adv-x="1024" d="M47 1577h537l301 -332h-383z" />
<glyph unicode="a" horiz-adv-x="1951" d="M27 283q0 112 68 189t225 126t411 66l660 36q3 15 3 28q0 62 -65 94q-79 40 -270 40q-210 0 -312.5 -29.5t-136.5 -99.5l-420 72q77 125 185.5 199t283.5 111.5t439 37.5q427 0 595 -126q121 -91 121 -242q0 -58 -18 -126l-82 -301q-10 -36 6.5 -55.5t55.5 -19.5 q25 0 49 6l-84 -285q-114 -31 -189 -31q-127 0 -196.5 50t-77.5 145q-129 -94 -310.5 -144.5t-398.5 -50.5q-265 0 -403.5 80.5t-138.5 229.5zM467 336q0 -51 48.5 -72.5t156.5 -21.5q264 0 451.5 66.5t215.5 168.5h2v4l-704 -49q-89 -7 -129.5 -30t-40.5 -66z" />
<glyph unicode="b" horiz-adv-x="2131" d="M35 0l411 1536h433l-154 -569q248 186 653 186q321 0 496.5 -127t175.5 -352q0 -148 -65 -277t-180.5 -222.5t-285.5 -147.5t-370 -54q-244 0 -406 59t-239 169l-80 -201h-389zM618 563q-7 -28 -7 -54q0 -93 90 -148q114 -70 362 -70q137 0 244 27t172 73t98 104.5 t33 125.5q0 111 -101.5 163t-326.5 52q-235 0 -377 -63.5t-182 -186.5z" />
<glyph unicode="c" horiz-adv-x="1953" d="M78 449q0 113 42.5 216.5t131 192.5t215 154.5t305 103t389.5 37.5q369 0 571 -112t214 -304l-435 -88q-5 98 -104.5 143.5t-312.5 45.5q-287 0 -430.5 -98t-143.5 -253q0 -101 99.5 -149.5t320.5 -48.5q408 0 518 198l402 -86q-85 -217 -344.5 -322.5t-647.5 -105.5 q-383 0 -586.5 126t-203.5 350z" />
<glyph unicode="d" horiz-adv-x="2127" d="M82 451q0 149 67.5 278t188 222.5t296.5 147.5t384 54q432 0 594 -215l160 598h434l-412 -1536h-397l26 158q-248 -185 -657 -185q-329 0 -506.5 126t-177.5 352zM524 492q0 -103 102.5 -152t317.5 -49q241 0 385 67t178 195q9 35 9 66q0 90 -80 144q-108 73 -351 73 q-281 0 -421 -94.5t-140 -249.5z" />
<glyph unicode="e" horiz-adv-x="2009" d="M78 440q0 144 67.5 271t196.5 226.5t334.5 157.5t462.5 58q374 0 588.5 -126t216.5 -333q0 -118 -60 -229h-1378q12 -99 119.5 -147t324.5 -48q413 0 486 119l413 -76q-108 -175 -343.5 -257.5t-635.5 -82.5q-386 0 -589 123t-203 344zM563 692h959q-5 95 -101 135.5 t-323 40.5q-408 0 -535 -176z" />
<glyph unicode="f" horiz-adv-x="1394" d="M100 817l84 309h285q71 236 254.5 336.5t525.5 100.5q192 0 383 -35l-92 -291q-157 25 -301 25q-143 0 -220.5 -31t-113.5 -105h613l-82 -309h-619l-221 -817h-432l221 817h-285z" />
<glyph unicode="g" horiz-adv-x="1978" d="M-154 -186q0 99 89 157t268 82q-172 45 -172 193q0 92 84.5 162.5t251.5 103.5q-174 77 -174 227q0 188 216.5 301t630.5 113q457 0 643 -115q85 91 199 132q76 27 154 27q39 0 78 -7l-107 -332q-67 16 -138 16q-34 0 -69 -4q2 -8 2 -26q0 -90 -54.5 -165t-160.5 -132 t-274.5 -89t-384.5 -32q-178 0 -332 23q-121 -15 -121 -84q0 -33 30 -51t101 -19l672 -8q239 -3 360 -71.5t121 -195.5q0 -84 -38.5 -153t-121.5 -126t-209.5 -95.5t-307.5 -60t-410 -21.5q-300 0 -485.5 30t-263 83.5t-77.5 136.5zM322 -90q0 -33 33 -53.5t121.5 -32.5 t240.5 -12q588 0 588 125q0 63 -115 63h-711q-74 0 -115.5 -24t-41.5 -66zM633 772q0 -52 77.5 -78t266.5 -26q145 0 232 18t120 47.5t33 75.5q0 51 -80.5 76.5t-261.5 25.5q-208 0 -297.5 -36t-89.5 -103z" />
<glyph unicode="h" horiz-adv-x="2052" d="M35 0l411 1536h431l-166 -623q134 114 306 177t363 63q199 0 330.5 -71t177.5 -201q23 -65 23 -139q0 -76 -23 -162l-155 -580h-433l140 512q14 54 14 98q0 80 -46 130q-72 77 -251 77q-202 0 -353.5 -92t-211.5 -254l-125 -471h-432z" />
<glyph unicode="i" horiz-adv-x="798" d="M35 0l301 1126h432l-301 -1126h-432zM369 1245l84 318h432l-86 -318h-430z" />
<glyph unicode="j" horiz-adv-x="798" d="M-442 -412l69 308q99 -13 162 -13q112 0 173 37t85 127l289 1079h432l-289 -1081q-70 -261 -224 -371t-423 -110q-142 0 -274 24zM369 1245l84 318h432l-86 -318h-430z" />
<glyph unicode="k" horiz-adv-x="1898" d="M35 0l411 1536h431l-213 -793l696 383h657l-905 -491l641 -635h-557l-438 438l-207 -119l-86 -319h-430z" />
<glyph unicode="l" horiz-adv-x="798" d="M35 0l411 1536h431l-410 -1536h-432z" />
<glyph unicode="m" horiz-adv-x="3059" d="M35 0l301 1126h395l-31 -198q243 225 578 225q193 0 320 -71t169 -197q120 128 283.5 198t359.5 70q287 0 423 -149q93 -102 93 -246q0 -67 -20 -142l-166 -616h-432l143 537q13 47 13 87q0 71 -42 118q-65 73 -227 73q-176 0 -293 -89.5t-171 -254.5l-127 -471h-433 l144 537q13 47 13 86q0 72 -43 119q-66 73 -228 73q-180 0 -298.5 -94t-170.5 -266l-121 -455h-432z" />
<glyph unicode="n" horiz-adv-x="2052" d="M35 0l301 1126h389l-31 -227q134 120 311.5 187t374.5 67q199 0 330.5 -71t177.5 -201q23 -65 23 -139q0 -76 -23 -162l-155 -580h-433l140 512q14 54 14 98q0 80 -46 130q-72 77 -251 77q-201 0 -352 -91t-211 -251l-127 -475h-432z" />
<glyph unicode="o" horiz-adv-x="2035" d="M80 444q0 113 43 217t131.5 194t215 156t303.5 104t386 38q396 0 598.5 -123t202.5 -348q0 -142 -68 -268.5t-198.5 -225.5t-340.5 -157t-474 -58q-394 0 -596.5 122.5t-202.5 348.5zM520 485q0 -100 101 -148t325 -48q145 0 258 28.5t180.5 78t101.5 111.5t34 134 q0 101 -100.5 149t-325.5 48q-145 0 -258 -29t-180.5 -79t-101.5 -112t-34 -133z" />
<glyph unicode="p" horiz-adv-x="2121" d="M-76 -410l412 1536h395l-29 -176q253 203 676 203q321 0 496.5 -127t175.5 -352q0 -148 -65 -277t-180.5 -222.5t-285.5 -147.5t-370 -54q-234 0 -394 54.5t-239 156.5l-160 -594h-432zM618 567q-7 -30 -7 -56q0 -95 89 -149q113 -71 363 -71q137 0 244 27t172 73 t98 104.5t33 125.5q0 111 -101.5 163t-326.5 52q-238 0 -381.5 -65t-177.5 -187z" />
<glyph unicode="q" horiz-adv-x="2127" d="M82 451q0 149 67.5 278t188 222.5t296.5 147.5t384 54q226 0 378 -60t226 -169l76 202h397l-412 -1536h-432l148 551q-242 -168 -633 -168q-329 0 -506.5 126t-177.5 352zM524 492q0 -103 102.5 -152t317.5 -49q242 0 385.5 66.5t177.5 193.5q9 35 9 66q0 91 -80 145 q-107 74 -351 74q-281 0 -421 -94.5t-140 -249.5z" />
<glyph unicode="r" horiz-adv-x="1400" d="M35 0l301 1126h395l-39 -252q263 279 674 279q84 0 152 -14l-121 -396q-102 25 -219 25q-497 0 -603 -365l-108 -403h-432z" />
<glyph unicode="s" horiz-adv-x="1867" d="M-6 315l455 68q5 -72 93 -105.5t275 -33.5q118 0 204 5t138 13t83 21t41.5 27t10.5 32q0 35 -33 48.5t-141 19.5l-413 20q-290 17 -422.5 92.5t-132.5 222.5q0 189 230 298.5t679 109.5q385 0 567 -78.5t199 -243.5l-424 -67q-5 43 -43.5 69.5t-125.5 40t-233 13.5 q-161 0 -255 -11.5t-128 -31.5t-34 -51q0 -37 44 -52t181 -22l412 -23q284 -19 404 -83t120 -199q0 -76 -33 -141.5t-105.5 -121.5t-181 -95t-265.5 -61t-353 -22q-279 0 -455.5 40t-259 113.5t-98.5 188.5z" />
<glyph unicode="t" horiz-adv-x="1513" d="M90 817l82 309h156q39 0 64.5 3t51 15.5t42.5 30.5t37.5 54t39 80t45.5 114h336l-80 -297h703l-84 -309h-701l-71 -264q-14 -55 -14 -97q-1 -67 35 -101q58 -56 220 -56q186 0 418 43l-100 -322q-258 -47 -488 -47q-338 0 -462 135q-80 86 -79 225q0 78 25 173l84 311 h-260z" />
<glyph unicode="u" horiz-adv-x="1990" d="M166 545l156 581h432l-146 -540q-12 -44 -12 -81q0 -71 42 -120q64 -74 234 -74q182 0 329.5 96.5t203.5 262.5l123 456h430l-301 -1126h-389l28 213q-246 -240 -628 -240q-318 -1 -446 151q-81 97 -82 242q0 82 26 179z" />
<glyph unicode="v" horiz-adv-x="1808" d="M156 1126h454l248 -694l596 694h504l-1008 -1126h-372z" />
<glyph unicode="w" horiz-adv-x="2678" d="M156 1126h422l165 -686l531 686h393l182 -677l508 677h471l-864 -1126h-377l-190 733l-582 -733h-379z" />
<glyph unicode="x" horiz-adv-x="1931" d="M-133 0l817 590l-483 536h522l289 -315l440 315h588l-799 -557l524 -569h-540l-312 346l-471 -346h-575z" />
<glyph unicode="y" horiz-adv-x="1777" d="M-115 -399l70 309q125 -19 213 -19q138 0 218 30.5t167 121.5l-397 1083h456l254 -741l559 741h500l-881 -1116q-108 -135 -206.5 -222.5t-200 -136.5t-200.5 -68t-226 -19q-201 0 -326 37z" />
<glyph unicode="z" horiz-adv-x="1812" d="M-39 0l80 297l1104 532h-955l80 297h1583l-79 -297l-1104 -532h966l-80 -297h-1595z" />
<glyph unicode="{" horiz-adv-x="1144" d="M6 428l78 289q122 4 192.5 28t101.5 63.5t50 111.5l45 174q27 99 77.5 166t129 105t175.5 53.5t230 15.5q110 0 246 -17l-90 -295q-112 11 -178 11q-102 0 -155.5 -36.5t-80.5 -138.5l-26 -102q-38 -143 -116 -208.5t-228 -84.5q246 -61 178 -325l-19 -76 q-24 -89 7.5 -128.5t134.5 -39.5q71 0 184 10l-68 -295q-125 -16 -249 -16q-259 0 -366 98t-52 301l33 127q27 102 -29 150t-205 59z" />
<glyph unicode="|" horiz-adv-x="860" d="M-25 -348l510 1904h424l-510 -1904h-424z" />
<glyph unicode="}" horiz-adv-x="1144" d="M-184 -291l92 295q102 -10 182 -10q101 0 150 29.5t69 105.5l25 94q24 88 51 146t68.5 101t99 64.5t139.5 28.5q-251 64 -178 332l25 88q20 74 -12.5 112t-112.5 38q-71 0 -207 -11l67 295q150 17 258 17q251 0 355 -109t51 -303l-31 -115q-20 -64 -13 -105.5t62.5 -65 t186.5 -38.5l-78 -288q-72 -7 -120.5 -15t-85 -20.5t-58 -25t-37.5 -35.5t-24 -45t-19 -60l-41 -152q-28 -106 -77.5 -177.5t-124 -112t-164.5 -57.5t-214 -17q-171 0 -284 16z" />
<glyph unicode="~" d="M137 567l84 320q230 78 385 78q83 0 166 -20.5t139 -45t127.5 -45t135.5 -20.5q147 0 358 79l-82 -319q-227 -78 -383 -78q-82 0 -163 20.5t-136.5 45t-128.5 45t-141 20.5q-153 0 -361 -80z" />
<glyph unicode="&#xa1;" horiz-adv-x="894" d="M-18 -307l294 983h404l-231 -983h-467zM281 791l90 335h458l-90 -335h-458z" />
<glyph unicode="&#xa2;" horiz-adv-x="1949" d="M80 442q0 114 42.5 218t131 194t215 156.5t304 104.5t388.5 38q115 0 217 -12l105 129h198l-131 -160q186 -47 287.5 -143.5t110.5 -229.5l-435 -88q-5 68 -52.5 110t-145.5 62l-436 -530q20 -2 63 -2q409 0 516 198l404 -86q-43 -110 -134 -192.5t-220.5 -134 t-289 -76.5t-348.5 -25q-129 0 -237 15l-125 -152h-199l152 187q-188 54 -284.5 160.5t-96.5 258.5zM520 487q0 -135 178 -176l430 527h-34q-287 0 -430.5 -98t-143.5 -253z" />
<glyph unicode="&#xa3;" horiz-adv-x="2064" d="M-43 0l86 322h57q188 0 287.5 64t99.5 179v23h-374l47 170h282q-22 55 -30.5 79t-19.5 75t-11 98q0 210 225.5 330t646.5 120q808 0 832 -416l-514 -65q6 87 -73.5 127.5t-270.5 40.5q-188 0 -268 -42.5t-80 -123.5q0 -36 11.5 -70.5t33.5 -81t32 -71.5h746l-45 -170 h-680q-24 -180 -229 -266h1144l-86 -322h-1849z" />
<glyph unicode="&#xa4;" horiz-adv-x="1501" d="M203 373l170 168q-39 83 -39 176t39 176l-170 168l203 205l184 -185q90 35 203 35q114 0 204 -35l185 185l202 -205l-172 -170q39 -74 39 -174q0 -99 -37 -174l170 -170l-202 -205l-183 182q-87 -37 -206 -37q-118 0 -205 37l-182 -182zM629 717q0 -66 44 -105t120 -39 q79 0 122 38.5t43 105.5q0 66 -44.5 102.5t-120.5 36.5t-120 -36t-44 -103z" />
<glyph unicode="&#xa5;" horiz-adv-x="2095" d="M90 408l45 163h674l-90 131h-549l45 164h389l-393 568h537l370 -535l645 535h594l-678 -568h392l-43 -164h-543l-158 -131h666l-45 -163h-709l-109 -408h-452l108 408h-696z" />
<glyph unicode="&#xa6;" horiz-adv-x="860" d="M-25 -348l234 870h424l-234 -870h-424zM262 727l223 829h424l-221 -829h-426z" />
<glyph unicode="&#xa7;" horiz-adv-x="2127" d="M-66 -6l488 47q-2 -93 95.5 -134.5t348.5 -41.5q156 0 256.5 7.5t150.5 24.5t67.5 36t17.5 49q0 27 -10.5 42t-61 30.5t-123.5 27.5t-229 35l-234 35q-305 44 -422.5 117.5t-117.5 219.5q0 112 88.5 197.5t265.5 138.5q-176 86 -176 269q0 81 34 150.5t107.5 128.5 t182 101t265 65.5t349.5 23.5q201 0 351.5 -18.5t249 -52t161 -86t91 -113t36.5 -140.5l-486 -47q-3 86 -106 121t-356 35q-118 0 -196.5 -7t-119.5 -21.5t-56.5 -32t-15.5 -42.5q0 -16 5 -27t21 -22t39.5 -19t69 -18.5t100 -19.5t140.5 -23l221 -35q218 -34 341 -80 t173 -108t50 -156q0 -116 -82 -207t-226 -141q92 -46 133 -108.5t41 -147.5q0 -104 -61.5 -190.5t-182 -152.5t-314.5 -103t-443 -37q-479 0 -696.5 103t-223.5 327zM639 604q0 -42 32 -67.5t112 -45.5t241 -42l225 -33q36 -5 135 -23q65 30 94 62t29 77q0 36 -12.5 57.5 t-54.5 41.5t-118.5 35t-207.5 32l-235 33q-13 2 -37.5 5t-36.5 5q-90 -22 -128 -56t-38 -81z" />
<glyph unicode="&#xa8;" horiz-adv-x="1024" d="M129 1245l90 332h471l-90 -332h-471zM793 1245l88 332h471l-90 -332h-469z" />
<glyph unicode="&#xa9;" horiz-adv-x="2422" d="M131 578q0 127 38 247.5t110 228t182.5 197t249.5 154.5t317 101t379 36q476 0 723.5 -184.5t247.5 -503.5q0 -120 -37.5 -237t-109 -224.5t-182.5 -199t-249.5 -159t-319 -105.5t-382.5 -38q-240 0 -425 48.5t-303.5 139t-178.5 216.5t-60 283zM330 584 q0 -242 198 -383.5t576 -141.5q247 0 452 63t340 171t209 250.5t74 302.5q0 255 -194 391.5t-582 136.5q-263 0 -470.5 -62.5t-337.5 -171t-197.5 -250t-67.5 -306.5zM741 659q0 173 166 294.5t430 121.5q220 0 340 -66.5t127 -195.5l-266 -35q0 121 -205 121 q-155 0 -243.5 -62t-88.5 -159q0 -64 56.5 -97.5t165.5 -33.5q227 0 276 123l262 -33q-110 -270 -559 -270q-461 0 -461 292z" />
<glyph unicode="&#xaa;" horiz-adv-x="1304" d="M215 928q0 45 18.5 80.5t63.5 67.5t131 53.5t211 29.5l334 23l2 4q11 44 -24 66t-120 22q-83 0 -123 -17.5t-61 -58.5l-323 29q40 81 102.5 129t177 73t295.5 25q230 0 335 -73t66 -220l-47 -180q-7 -26 1.5 -37.5t35.5 -11.5q23 0 47 4l-51 -166q-72 -16 -149 -16 q-200 0 -222 118q-150 -118 -405 -118q-155 0 -225 47t-70 127zM557 971q0 -45 84 -45q98 0 188.5 34.5t114.5 88.5l-297 -25q-90 -6 -90 -53z" />
<glyph unicode="&#xab;" horiz-adv-x="2000" d="M57 352l113 422l901 332l-104 -393l-549 -164l463 -162l-99 -367zM1004 352l112 422l901 332l-104 -393l-549 -164l463 -162l-98 -367z" />
<glyph unicode="&#xac;" d="M137 575l82 306h1305l-164 -613h-373l82 307h-932z" />
<glyph unicode="&#xad;" horiz-adv-x="0" />
<glyph unicode="&#xae;" horiz-adv-x="2375" d="M129 580q0 141 50.5 270.5t155 240.5t251.5 193t352 129t446 47q466 0 707.5 -163.5t241.5 -448.5q0 -132 -50 -257.5t-154.5 -238t-251 -196.5t-353.5 -133.5t-449 -49.5q-467 0 -706.5 162t-239.5 445zM328 596q0 -211 191 -333t562 -122q247 0 448.5 55t332.5 149.5 t201.5 218.5t70.5 265q0 224 -188.5 343.5t-567.5 119.5q-263 0 -467.5 -54.5t-330 -150.5t-189 -220t-63.5 -271zM709 377l184 688h612q124 0 192 -56.5t68 -154.5q0 -84 -62 -150t-171 -92l160 -235h-260l-138 205h-301l-55 -205h-229zM1040 756h383q51 0 78 20.5t27 54.5 q0 60 -76 60h-377z" />
<glyph unicode="&#xaf;" horiz-adv-x="1024" d="M168 1247l72 275h1060l-73 -275h-1059z" />
<glyph unicode="&#xb0;" horiz-adv-x="1488" d="M291 1024q0 87 45.5 164.5t129 137t212 94t283.5 34.5q258 0 388 -81.5t130 -235.5q0 -64 -27.5 -126t-84 -116.5t-135 -96t-188 -65.5t-235.5 -24q-257 0 -387.5 81t-130.5 234zM657 1061q0 -53 45 -79t150 -26q128 0 194 43t66 105q0 52 -44.5 77t-149.5 25 q-128 0 -194.5 -42t-66.5 -103z" />
<glyph unicode="&#xb1;" d="M25 0l81 305h1305l-82 -305h-1304zM221 745l82 306h465l82 307h373l-82 -307h467l-82 -306h-467l-82 -307h-373l82 307h-465z" />
<glyph unicode="&#xb2;" horiz-adv-x="1144" d="M180 938l53 207l646 186q68 23 91 39t23 39q0 53 -166 53q-122 0 -177 -20.5t-81 -69.5l-276 51q63 124 193.5 184t355.5 60q227 0 347 -55.5t120 -157.5q0 -32 -8.5 -58t-37 -59t-77 -61t-133.5 -59t-201 -58l-70 -16h439l-54 -205h-987z" />
<glyph unicode="&#xb3;" horiz-adv-x="1165" d="M209 1149l285 49q-4 -44 52.5 -64t180.5 -20q227 0 227 62q0 34 -59 34h-322l48 176h319q82 0 82 44q0 25 -40.5 37t-145.5 12q-122 0 -188 -18.5t-87 -61.5l-258 51q108 215 557 215q471 0 471 -192q0 -57 -47.5 -101.5t-148.5 -66.5q63 -15 96 -49t33 -82 q0 -109 -139.5 -178.5t-413.5 -69.5q-255 0 -378.5 55t-123.5 168z" />
<glyph unicode="&#xb4;" horiz-adv-x="1024" d="M506 1245l444 332h572l-617 -332h-399z" />
<glyph unicode="&#xb5;" horiz-adv-x="2004" d="M-76 -410l412 1536h432l-145 -540q-33 -126 40.5 -200.5t225.5 -74.5q218 0 345 90t183 263l125 462h430l-301 -1126h-389l27 188q-234 -215 -574 -215q-160 0 -270 39l-113 -422h-428z" />
<glyph unicode="&#xb6;" horiz-adv-x="2361" d="M231 956q0 211 156.5 344.5t413.5 133.5h684l-467 -1741h-445l250 934h-213q-191 0 -285 87.5t-94 241.5zM1466 -307l467 1741h445l-467 -1741h-445z" />
<glyph unicode="&#xb7;" horiz-adv-x="1024" d="M285 580l102 381h465l-100 -381h-467z" />
<glyph unicode="&#xb8;" horiz-adv-x="1024" d="M-18 -406l55 166q184 -41 328 -41q83 0 128.5 7t57.5 17t12 26q0 34 -63 34q-55 0 -97 -22l-241 22l98 217h301l-47 -102q76 12 154 12q268 0 268 -157q0 -224 -551 -224q-230 0 -403 45z" />
<glyph unicode="&#xb9;" horiz-adv-x="1069" d="M172 938l57 217h353l73 277l-331 -46l57 211l397 58h238l-135 -500h297l-60 -217h-946z" />
<glyph unicode="&#xba;" horiz-adv-x="1363" d="M258 1059q0 60 23.5 116t75 107t126 89t183.5 60.5t241 22.5q249 0 370.5 -79.5t121.5 -221.5q0 -62 -24 -119.5t-75 -108.5t-125 -89t-182 -60t-237 -22q-251 0 -374.5 81t-123.5 224zM606 1071q0 -57 46.5 -88t138.5 -31q127 0 195.5 56t68.5 131q0 55 -47.5 85.5 t-139.5 30.5q-128 0 -195 -53.5t-67 -130.5z" />
<glyph unicode="&#xbb;" horiz-adv-x="2000" d="M-14 20l108 406l529 160l-447 147l100 373l723 -332l-110 -422zM932 20l108 406l529 160l-447 147l101 373l723 -332l-111 -422z" />
<glyph unicode="&#xbc;" horiz-adv-x="2904" d="M113 717l57 217h352l74 276l-332 -45l58 211l397 58h237l-135 -500h297l-59 -217h-946zM338 0l2013 1434h402l-2012 -1434h-403zM1636 111l47 174l816 432h235l-111 -420h160l-49 -186h-162l-28 -111h-275l29 111h-662zM2050 297h299l49 186z" />
<glyph unicode="&#xbd;" horiz-adv-x="2930" d="M113 717l57 217h352l74 276l-332 -45l58 211l397 58h237l-135 -500h297l-59 -217h-946zM338 0l2013 1434h402l-2012 -1434h-403zM1718 0l54 207l645 186q68 23 91 39t23 39q0 53 -166 53q-122 0 -177 -20.5t-81 -69.5l-276 51q63 124 193.5 184t355.5 60q227 0 347 -55.5 t120 -157.5q0 -32 -8.5 -58t-37 -59t-77 -61t-133.5 -59t-201 -58l-70 -16h439l-54 -205h-987z" />
<glyph unicode="&#xbe;" horiz-adv-x="2879" d="M150 928l284 49q-4 -44 53 -64t181 -20q89 0 141.5 9t69 21.5t16.5 30.5q0 35 -59 35h-322l47 176h320q82 0 82 43q0 25 -41 37t-146 12q-122 0 -187.5 -18t-86.5 -61l-258 51q108 215 557 215q471 0 471 -193q0 -57 -47.5 -101.5t-149.5 -66.5q63 -15 96 -49t33 -82 q0 -109 -139.5 -178t-413.5 -69q-254 0 -377.5 55t-123.5 168zM311 0l2013 1434h402l-2011 -1434h-404zM1612 111l47 174l815 432h236l-111 -420h160l-49 -186h-162l-29 -111h-274l28 111h-661zM2025 297h299l50 186z" />
<glyph unicode="&#xbf;" horiz-adv-x="1986" d="M-43 63q0 71 28.5 128t77.5 95.5t112 68.5t134 51.5t142.5 41t137.5 40t118.5 45t88 61t42.5 82.5h458q-18 -86 -66 -155.5t-111.5 -113.5t-140 -79t-153 -55.5t-148 -40t-126.5 -35t-88 -39t-33 -52.5q0 -24 14 -41t51.5 -31t110 -21t182.5 -7q514 0 592 225l451 -73 q-79 -231 -363.5 -361.5t-728.5 -130.5q-201 0 -353.5 30t-245 84.5t-138 125.5t-45.5 157zM868 791l90 335h459l-90 -335h-459z" />
<glyph unicode="&#xc0;" horiz-adv-x="2383" d="M-150 0l1344 1434h465l575 -1434h-475l-98 258h-1043l-237 -258h-531zM815 1884h537l301 -332h-383zM918 582h618l-182 473z" />
<glyph unicode="&#xc1;" horiz-adv-x="2383" d="M-150 0l1344 1434h465l575 -1434h-475l-98 258h-1043l-237 -258h-531zM918 582h618l-182 473zM1253 1552l445 332h571l-616 -332h-400z" />
<glyph unicode="&#xc2;" horiz-adv-x="2383" d="M-150 0l1344 1434h465l575 -1434h-475l-98 258h-1043l-237 -258h-531zM846 1552l448 332h518l259 -332h-326l-219 152l-332 -152h-348zM918 582h618l-182 473z" />
<glyph unicode="&#xc3;" horiz-adv-x="2383" d="M-150 0l1344 1434h465l575 -1434h-475l-98 258h-1043l-237 -258h-531zM918 582h618l-182 473zM924 1552q27 187 121.5 280t230.5 93q60 0 127 -20t115 -43.5t98 -43.5t80 -20q43 0 64.5 25t27.5 75h272q-24 -187 -113 -277.5t-227 -90.5q-69 0 -139 19t-115.5 42.5 t-95.5 42.5t-84 19q-42 0 -65.5 -26t-24.5 -75h-272z" />
<glyph unicode="&#xc4;" horiz-adv-x="2383" d="M-150 0l1344 1434h465l575 -1434h-475l-98 258h-1043l-237 -258h-531zM891 1552l90 332h471l-90 -332h-471zM918 582h618l-182 473zM1554 1552l88 332h472l-91 -332h-469z" />
<glyph unicode="&#xc5;" horiz-adv-x="2383" d="M-150 0l1344 1434h465l575 -1434h-475l-98 258h-1043l-237 -258h-531zM918 582h618l-182 473zM1139 1741q0 125 120 206t324 81q155 0 238.5 -55t83.5 -156q0 -125 -122.5 -209t-326.5 -84q-154 0 -235.5 55.5t-81.5 161.5zM1346 1761q0 -84 143 -84q105 0 156 31t51 82 q0 84 -144 84q-102 0 -154 -32t-52 -81z" />
<glyph unicode="&#xc6;" horiz-adv-x="3635" d="M-150 0l1649 1434h2243l-86 -322h-1276l-60 -221h1135l-86 -320h-1135l-67 -249h1292l-86 -322h-1733l76 285h-987l-330 -285h-549zM1102 608h702l135 504h-256z" />
<glyph unicode="&#xc7;" horiz-adv-x="2359" d="M131 594q0 148 56 279.5t166.5 238.5t264.5 185t358.5 120.5t440.5 42.5q453 0 697.5 -126.5t259.5 -370.5l-469 -95q-8 124 -136 184t-391 60q-157 0 -287 -25.5t-219 -69.5t-150.5 -104.5t-89.5 -128t-28 -141.5q0 -321 559 -321q243 0 398 61t237 190l449 -90 q-90 -171 -229.5 -280.5t-354.5 -167.5t-516 -62l-27 -55q76 12 154 12q268 0 268 -157q0 -224 -551 -224q-230 0 -403 45l55 166q184 -41 328 -41q83 0 128.5 7t57.5 17t12 26q0 34 -63 34q-54 0 -96 -22l-242 22l82 183q-350 41 -534.5 197t-184.5 411z" />
<glyph unicode="&#xc8;" horiz-adv-x="2148" d="M68 0l385 1434h1804l-86 -322h-1366l-60 -221h1225l-86 -320h-1222l-68 -249h1380l-86 -322h-1820zM764 1884h536l302 -332h-383z" />
<glyph unicode="&#xc9;" horiz-adv-x="2148" d="M68 0l385 1434h1804l-86 -322h-1366l-60 -221h1225l-86 -320h-1222l-68 -249h1380l-86 -322h-1820zM1147 1552l444 332h572l-617 -332h-399z" />
<glyph unicode="&#xca;" horiz-adv-x="2148" d="M68 0l385 1434h1804l-86 -322h-1366l-60 -221h1225l-86 -320h-1222l-68 -249h1380l-86 -322h-1820zM780 1552l449 332h518l258 -332h-326l-219 152l-332 -152h-348z" />
<glyph unicode="&#xcb;" horiz-adv-x="2148" d="M68 0l385 1434h1804l-86 -322h-1366l-60 -221h1225l-86 -320h-1222l-68 -249h1380l-86 -322h-1820zM823 1552l90 332h471l-90 -332h-471zM1487 1552l88 332h471l-90 -332h-469z" />
<glyph unicode="&#xcc;" horiz-adv-x="888" d="M63 1884h537l301 -332h-383zM70 0l385 1434h452l-385 -1434h-452z" />
<glyph unicode="&#xcd;" horiz-adv-x="888" d="M68 0l385 1434h452l-385 -1434h-452zM516 1552l445 332h571l-617 -332h-399z" />
<glyph unicode="&#xce;" horiz-adv-x="888" d="M68 0l385 1434h452l-385 -1434h-452zM98 1552l449 332h518l258 -332h-326l-219 152l-332 -152h-348z" />
<glyph unicode="&#xcf;" horiz-adv-x="888" d="M68 0l385 1434h452l-385 -1434h-452zM143 1552l90 332h472l-91 -332h-471zM807 1552l88 332h471l-90 -332h-469z" />
<glyph unicode="&#xd0;" horiz-adv-x="2486" d="M25 621l51 196h243l166 617h1155q365 0 564.5 -156t199.5 -447q0 -172 -69.5 -324t-194 -264.5t-309.5 -177.5t-404 -65h-1327l166 621h-241zM647 348h766q120 0 220 37t164.5 99t100 140.5t35.5 163.5q0 152 -84 224.5t-258 72.5h-747l-72 -268h436l-53 -196h-436z" />
<glyph unicode="&#xd1;" horiz-adv-x="2463" d="M68 0l385 1434h438l895 -1004l268 1004h426l-383 -1434h-438l-895 1004l-270 -1004h-426zM979 1552q27 187 121.5 280t230.5 93q60 0 127 -20t115 -43.5t98 -43.5t80 -20q43 0 64.5 25t27.5 75h273q-24 -187 -113 -277.5t-227 -90.5q-69 0 -139 19t-116 42.5t-96 42.5 t-84 19q-42 0 -65.5 -26t-24.5 -75h-272z" />
<glyph unicode="&#xd2;" horiz-adv-x="2469" d="M133 592q0 146 54 276.5t163.5 238.5t265 187t368.5 122.5t464 43.5q471 0 724 -163t253 -459q0 -116 -38.5 -225t-112 -205t-186.5 -176t-256 -137.5t-327.5 -89.5t-394.5 -32q-472 0 -724.5 161.5t-252.5 457.5zM602 625q0 -103 53 -168t178 -100t330 -35 q192 0 345.5 39.5t249 107t146 152.5t50.5 180q0 106 -53 173t-178 102.5t-332 35.5q-153 0 -283.5 -26.5t-222 -73t-156.5 -108.5t-96 -132.5t-31 -146.5zM850 1884h536l302 -332h-383z" />
<glyph unicode="&#xd3;" horiz-adv-x="2469" d="M133 592q0 146 54 276.5t163.5 238.5t265 187t368.5 122.5t464 43.5q471 0 724 -163t253 -459q0 -116 -38.5 -225t-112 -205t-186.5 -176t-256 -137.5t-327.5 -89.5t-394.5 -32q-472 0 -724.5 161.5t-252.5 457.5zM602 625q0 -103 53 -168t178 -100t330 -35 q192 0 345.5 39.5t249 107t146 152.5t50.5 180q0 106 -53 173t-178 102.5t-332 35.5q-153 0 -283.5 -26.5t-222 -73t-156.5 -108.5t-96 -132.5t-31 -146.5zM1309 1552l444 332h571l-616 -332h-399z" />
<glyph unicode="&#xd4;" horiz-adv-x="2469" d="M133 592q0 146 54 276.5t163.5 238.5t265 187t368.5 122.5t464 43.5q471 0 724 -163t253 -459q0 -116 -38.5 -225t-112 -205t-186.5 -176t-256 -137.5t-327.5 -89.5t-394.5 -32q-472 0 -724.5 161.5t-252.5 457.5zM602 625q0 -103 53 -168t178 -100t330 -35 q192 0 345.5 39.5t249 107t146 152.5t50.5 180q0 106 -53 173t-178 102.5t-332 35.5q-153 0 -283.5 -26.5t-222 -73t-156.5 -108.5t-96 -132.5t-31 -146.5zM887 1552l448 332h518l258 -332h-325l-219 152l-332 -152h-348z" />
<glyph unicode="&#xd5;" horiz-adv-x="2469" d="M133 592q0 146 54 276.5t163.5 238.5t265 187t368.5 122.5t464 43.5q471 0 724 -163t253 -459q0 -116 -38.5 -225t-112 -205t-186.5 -176t-256 -137.5t-327.5 -89.5t-394.5 -32q-472 0 -724.5 161.5t-252.5 457.5zM602 625q0 -103 53 -168t178 -100t330 -35 q192 0 345.5 39.5t249 107t146 152.5t50.5 180q0 106 -53 173t-178 102.5t-332 35.5q-153 0 -283.5 -26.5t-222 -73t-156.5 -108.5t-96 -132.5t-31 -146.5zM977 1552q27 187 121.5 280t230.5 93q60 0 127 -20t115 -43.5t98 -43.5t80 -20q43 0 64.5 25t27.5 75h273 q-24 -187 -113 -277.5t-227 -90.5q-69 0 -139 19t-116 42.5t-96 42.5t-84 19q-42 0 -65.5 -26t-24.5 -75h-272z" />
<glyph unicode="&#xd6;" horiz-adv-x="2469" d="M133 592q0 146 54 276.5t163.5 238.5t265 187t368.5 122.5t464 43.5q471 0 724 -163t253 -459q0 -116 -38.5 -225t-112 -205t-186.5 -176t-256 -137.5t-327.5 -89.5t-394.5 -32q-472 0 -724.5 161.5t-252.5 457.5zM602 625q0 -103 53 -168t178 -100t330 -35 q192 0 345.5 39.5t249 107t146 152.5t50.5 180q0 106 -53 173t-178 102.5t-332 35.5q-153 0 -283.5 -26.5t-222 -73t-156.5 -108.5t-96 -132.5t-31 -146.5zM932 1552l90 332h471l-90 -332h-471zM1595 1552l88 332h471l-90 -332h-469z" />
<glyph unicode="&#xd7;" d="M123 473l461 293l-279 272l244 224l321 -314l506 322l156 -252l-445 -283l289 -280l-243 -224l-330 322l-522 -332z" />
<glyph unicode="&#xd8;" horiz-adv-x="2469" d="M12 0l295 193q-174 154 -174 399q0 146 54 276.5t163.5 238.5t265 187t368.5 122.5t464 43.5q381 0 625 -108l127 82h346l-297 -195q176 -153 176 -401q0 -140 -53.5 -268t-163 -236.5t-264 -189t-369 -126t-465.5 -45.5q-388 0 -627 109l-125 -82h-346zM602 625 q0 -121 74 -189l997 654q-119 22 -282 22q-153 0 -283.5 -26.5t-222 -73t-156.5 -108.5t-96 -132.5t-31 -146.5zM883 344q119 -22 280 -22q192 0 345.5 39.5t249 107t146 152.5t50.5 180q0 125 -74 196z" />
<glyph unicode="&#xd9;" horiz-adv-x="2351" d="M196.5 537.5q-4.5 102.5 28.5 216.5l183 680h452l-178 -670q-60 -221 55 -331.5t375 -110.5q261 0 433.5 106.5t232.5 325.5l182 680h453l-187 -695q-107 -403 -391 -584.5t-774 -181.5q-169 0 -308.5 26t-240.5 75t-172.5 118.5t-105 156t-38 189zM793 1884h536 l301 -332h-383z" />
<glyph unicode="&#xda;" horiz-adv-x="2351" d="M196.5 537.5q-4.5 102.5 28.5 216.5l183 680h452l-178 -670q-60 -221 55 -331.5t375 -110.5q261 0 433.5 106.5t232.5 325.5l182 680h453l-187 -695q-107 -403 -391 -584.5t-774 -181.5q-169 0 -308.5 26t-240.5 75t-172.5 118.5t-105 156t-38 189zM1233 1552l444 332 h572l-617 -332h-399z" />
<glyph unicode="&#xdb;" horiz-adv-x="2351" d="M196.5 537.5q-4.5 102.5 28.5 216.5l183 680h452l-178 -670q-60 -221 55 -331.5t375 -110.5q261 0 433.5 106.5t232.5 325.5l182 680h453l-187 -695q-107 -403 -391 -584.5t-774 -181.5q-169 0 -308.5 26t-240.5 75t-172.5 118.5t-105 156t-38 189zM829 1552l449 332h518 l258 -332h-325l-220 152l-331 -152h-349z" />
<glyph unicode="&#xdc;" horiz-adv-x="2351" d="M196.5 537.5q-4.5 102.5 28.5 216.5l183 680h452l-178 -670q-60 -221 55 -331.5t375 -110.5q261 0 433.5 106.5t232.5 325.5l182 680h453l-187 -695q-107 -403 -391 -584.5t-774 -181.5q-169 0 -308.5 26t-240.5 75t-172.5 118.5t-105 156t-38 189zM874 1552l91 332h471 l-90 -332h-472zM1538 1552l88 332h471l-90 -332h-469z" />
<glyph unicode="&#xdd;" horiz-adv-x="2091" d="M207 1434h536l373 -543l645 543h592l-1087 -918l-140 -516h-452l147 549zM1077 1552l445 332h571l-616 -332h-400z" />
<glyph unicode="&#xde;" horiz-adv-x="2236" d="M68 0l385 1434h452l-47 -179h744q277 0 428 -125t151 -350q0 -273 -215.5 -434.5t-587.5 -161.5h-809l-49 -184h-452zM664 530h753q145 0 219 56t74 155q0 170 -219 170h-725z" />
<glyph unicode="&#xdf;" horiz-adv-x="2312" d="M-6 0l256 954q82 305 342 457t704 152q807 0 807 -381q0 -245 -340 -342q223 -26 334 -115t111 -231q0 -255 -262 -388t-738 -133q-393 0 -633 109l187 293q182 -99 440 -99q553 0 553 205q0 75 -63.5 110.5t-216.5 35.5h-572l82 301h236q241 0 342.5 47t101.5 135 q0 53 -29 85.5t-116 52.5t-240 20q-258 0 -406.5 -73.5t-189.5 -229.5l-258 -965h-432z" />
<glyph unicode="&#xe0;" horiz-adv-x="1951" d="M27 283q0 112 68 189t225 126t411 66l660 36q17 83 -62 122.5t-270 39.5q-210 0 -312.5 -29.5t-136.5 -99.5l-420 72q77 125 185.5 199t283.5 111.5t439 37.5q427 0 595 -126t103 -368l-82 -301q-10 -36 6.5 -55.5t55.5 -19.5q25 0 49 6l-84 -285q-114 -31 -189 -31 q-127 0 -196.5 50t-77.5 145q-129 -94 -310.5 -144.5t-398.5 -50.5q-265 0 -403.5 80.5t-138.5 229.5zM467 336q0 -51 48.5 -72.5t156.5 -21.5q264 0 451.5 66.5t215.5 168.5h2v4l-704 -49q-89 -7 -129.5 -30t-40.5 -66zM506 1577h536l301 -332h-382z" />
<glyph unicode="&#xe1;" horiz-adv-x="1951" d="M27 283q0 112 68 189t225 126t411 66l660 36q17 83 -62 122.5t-270 39.5q-210 0 -312.5 -29.5t-136.5 -99.5l-420 72q77 125 185.5 199t283.5 111.5t439 37.5q427 0 595 -126t103 -368l-82 -301q-10 -36 6.5 -55.5t55.5 -19.5q25 0 49 6l-84 -285q-114 -31 -189 -31 q-127 0 -196.5 50t-77.5 145q-129 -94 -310.5 -144.5t-398.5 -50.5q-265 0 -403.5 80.5t-138.5 229.5zM467 336q0 -51 48.5 -72.5t156.5 -21.5q264 0 451.5 66.5t215.5 168.5h2v4l-704 -49q-89 -7 -129.5 -30t-40.5 -66zM965 1245l444 332h571l-616 -332h-399z" />
<glyph unicode="&#xe2;" horiz-adv-x="1951" d="M27 283q0 112 68 189t225 126t411 66l660 36q17 83 -62 122.5t-270 39.5q-210 0 -312.5 -29.5t-136.5 -99.5l-420 72q77 125 185.5 199t283.5 111.5t439 37.5q427 0 595 -126t103 -368l-82 -301q-10 -36 6.5 -55.5t55.5 -19.5q25 0 49 6l-84 -285q-114 -31 -189 -31 q-127 0 -196.5 50t-77.5 145q-129 -94 -310.5 -144.5t-398.5 -50.5q-265 0 -403.5 80.5t-138.5 229.5zM467 336q0 -51 48.5 -72.5t156.5 -21.5q264 0 451.5 66.5t215.5 168.5h2v4l-704 -49q-89 -7 -129.5 -30t-40.5 -66zM543 1245l448 332h518l258 -332h-325l-219 152 l-332 -152h-348z" />
<glyph unicode="&#xe3;" horiz-adv-x="1951" d="M27 283q0 112 68 189t225 126t411 66l660 36q17 83 -62 122.5t-270 39.5q-210 0 -312.5 -29.5t-136.5 -99.5l-420 72q77 125 185.5 199t283.5 111.5t439 37.5q427 0 595 -126t103 -368l-82 -301q-10 -36 6.5 -55.5t55.5 -19.5q25 0 49 6l-84 -285q-114 -31 -189 -31 q-127 0 -196.5 50t-77.5 145q-129 -94 -310.5 -144.5t-398.5 -50.5q-265 0 -403.5 80.5t-138.5 229.5zM467 336q0 -51 48.5 -72.5t156.5 -21.5q264 0 451.5 66.5t215.5 168.5h2v4l-704 -49q-89 -7 -129.5 -30t-40.5 -66zM631 1245q27 187 121.5 280t230.5 93q76 0 161 -32 t154 -63.5t105 -31.5q43 0 64.5 25t27.5 75h272q-24 -187 -113 -277.5t-227 -90.5q-69 0 -139 19t-115.5 42.5t-95.5 42.5t-84 19q-42 0 -65.5 -26t-24.5 -75h-272z" />
<glyph unicode="&#xe4;" horiz-adv-x="1951" d="M27 283q0 112 68 189t225 126t411 66l660 36q17 83 -62 122.5t-270 39.5q-210 0 -312.5 -29.5t-136.5 -99.5l-420 72q77 125 185.5 199t283.5 111.5t439 37.5q427 0 595 -126t103 -368l-82 -301q-10 -36 6.5 -55.5t55.5 -19.5q25 0 49 6l-84 -285q-114 -31 -189 -31 q-127 0 -196.5 50t-77.5 145q-129 -94 -310.5 -144.5t-398.5 -50.5q-265 0 -403.5 80.5t-138.5 229.5zM467 336q0 -51 48.5 -72.5t156.5 -21.5q264 0 451.5 66.5t215.5 168.5h2v4l-704 -49q-89 -7 -129.5 -30t-40.5 -66zM588 1245l90 332h471l-90 -332h-471zM1251 1245 l88 332h471l-90 -332h-469z" />
<glyph unicode="&#xe5;" horiz-adv-x="1951" d="M27 283q0 112 68 189t225 126t411 66l660 36q17 83 -62 122.5t-270 39.5q-210 0 -312.5 -29.5t-136.5 -99.5l-420 72q77 125 185.5 199t283.5 111.5t439 37.5q427 0 595 -126t103 -368l-82 -301q-10 -36 6.5 -55.5t55.5 -19.5q25 0 49 6l-84 -285q-114 -31 -189 -31 q-127 0 -196.5 50t-77.5 145q-129 -94 -310.5 -144.5t-398.5 -50.5q-265 0 -403.5 80.5t-138.5 229.5zM467 336q0 -51 48.5 -72.5t156.5 -21.5q264 0 451.5 66.5t215.5 168.5h2v4l-704 -49q-89 -7 -129.5 -30t-40.5 -66zM834 1434q0 125 120 205.5t324 80.5q155 0 238 -55 t83 -156q0 -125 -122 -208.5t-326 -83.5q-154 0 -235.5 55.5t-81.5 161.5zM1040 1454q0 -84 144 -84q105 0 156 31t51 82q0 84 -144 84q-102 0 -154.5 -32t-52.5 -81z" />
<glyph unicode="&#xe6;" horiz-adv-x="3223" d="M27 283q0 112 68 189t225.5 126.5t410.5 65.5l662 36q12 83 -66 122.5t-270 39.5q-210 0 -311.5 -29.5t-135.5 -99.5l-420 72q77 125 185.5 199t283.5 111.5t439 37.5q210 0 352 -39t223 -127q256 166 692 166q369 0 580 -126t211 -333q0 -120 -59 -229h-1364 q21 -195 442 -195q402 0 475 119l412 -76q-108 -175 -336 -257.5t-617 -82.5q-458 0 -641 230q-146 -119 -354.5 -174.5t-509.5 -55.5q-279 0 -428 81t-149 229zM467 334q0 -49 48.5 -70.5t156.5 -21.5q282 0 458.5 63.5t210.5 173.5l-704 -47q-89 -8 -129.5 -31t-40.5 -67z M1788 692h948q-6 101 -105.5 138.5t-310.5 37.5q-407 0 -532 -176z" />
<glyph unicode="&#xe7;" horiz-adv-x="1955" d="M80 449q0 113 42.5 216.5t131 192.5t215 154.5t305 103t389.5 37.5q369 0 571 -112t214 -304l-435 -88q-5 98 -104.5 143.5t-312.5 45.5q-287 0 -430.5 -98t-143.5 -253q0 -101 99.5 -149.5t320.5 -48.5q408 0 518 198l402 -86q-55 -141 -189 -236.5t-321 -141 t-428 -50.5l-27 -55q77 12 154 12q268 0 268 -157q0 -224 -551 -224q-230 0 -403 45l55 166q184 -41 328 -41q83 0 128.5 7t57.5 17t12 26q0 34 -63 34q-55 0 -97 -22l-241 22l84 185q-268 36 -408.5 155.5t-140.5 305.5z" />
<glyph unicode="&#xe8;" horiz-adv-x="2009" d="M78 440q0 144 67.5 271t196.5 226.5t334.5 157.5t462.5 58q374 0 588.5 -126t216.5 -333q0 -118 -60 -229h-1378q12 -99 119.5 -147t324.5 -48q413 0 486 119l413 -76q-108 -175 -343.5 -257.5t-635.5 -82.5q-386 0 -589 123t-203 344zM532 1577h537l301 -332h-383z M563 692h959q-5 95 -101 135.5t-323 40.5q-408 0 -535 -176z" />
<glyph unicode="&#xe9;" horiz-adv-x="2009" d="M78 440q0 144 67.5 271t196.5 226.5t334.5 157.5t462.5 58q374 0 588.5 -126t216.5 -333q0 -118 -60 -229h-1378q12 -99 119.5 -147t324.5 -48q413 0 486 119l413 -76q-108 -175 -343.5 -257.5t-635.5 -82.5q-386 0 -589 123t-203 344zM563 692h959q-5 95 -101 135.5 t-323 40.5q-408 0 -535 -176zM991 1245l445 332h571l-616 -332h-400z" />
<glyph unicode="&#xea;" horiz-adv-x="2009" d="M78 440q0 144 67.5 271t196.5 226.5t334.5 157.5t462.5 58q374 0 588.5 -126t216.5 -333q0 -118 -60 -229h-1378q12 -99 119.5 -147t324.5 -48q413 0 486 119l413 -76q-108 -175 -343.5 -257.5t-635.5 -82.5q-386 0 -589 123t-203 344zM563 692h959q-5 95 -101 135.5 t-323 40.5q-408 0 -535 -176zM569 1245l449 332h518l258 -332h-326l-219 152l-331 -152h-349z" />
<glyph unicode="&#xeb;" horiz-adv-x="2009" d="M78 440q0 144 67.5 271t196.5 226.5t334.5 157.5t462.5 58q374 0 588.5 -126t216.5 -333q0 -118 -60 -229h-1378q12 -99 119.5 -147t324.5 -48q413 0 486 119l413 -76q-108 -175 -343.5 -257.5t-635.5 -82.5q-386 0 -589 123t-203 344zM563 692h959q-5 95 -101 135.5 t-323 40.5q-408 0 -535 -176zM614 1245l91 332h471l-91 -332h-471zM1278 1245l88 332h471l-90 -332h-469z" />
<glyph unicode="&#xec;" horiz-adv-x="798" d="M-66 1577h537l301 -332h-383zM35 0l301 1126h432l-301 -1126h-432z" />
<glyph unicode="&#xed;" horiz-adv-x="798" d="M35 0l301 1126h432l-301 -1126h-432zM393 1245l445 332h571l-616 -332h-400z" />
<glyph unicode="&#xee;" horiz-adv-x="798" d="M-29 1245l449 332h518l258 -332h-326l-219 152l-332 -152h-348zM35 0l301 1126h432l-301 -1126h-432z" />
<glyph unicode="&#xef;" horiz-adv-x="798" d="M16 1245l90 332h472l-91 -332h-471zM35 0l301 1126h432l-301 -1126h-432zM680 1245l88 332h471l-90 -332h-469z" />
<glyph unicode="&#xf0;" horiz-adv-x="2045" d="M70 406q0 120 55.5 218.5t166.5 173.5t293 116.5t421 41.5q384 0 561 -163q-2 90 -55.5 180t-182.5 207l-487 -117l51 186l272 66q-112 88 -243 180l522 61q93 -67 172 -133l428 103l-49 -189l-234 -55q217 -241 217 -502q0 -181 -65.5 -326.5t-198 -254t-348 -167.5 t-500.5 -59q-394 0 -595 112.5t-201 320.5zM512 432q0 -75 100.5 -109t335.5 -34q151 0 260 19t166 51.5t82 69t25 79.5q0 75 -100.5 110t-333.5 35q-535 0 -535 -221z" />
<glyph unicode="&#xf1;" horiz-adv-x="2052" d="M35 0l301 1126h389l-31 -227q134 120 311.5 187t374.5 67q199 0 330.5 -71t178 -201t-0.5 -301l-155 -580h-433l140 512q40 151 -32.5 228t-250.5 77q-201 0 -352 -91t-211 -251l-127 -475h-432zM686 1245q27 187 121.5 280t230.5 93q76 0 161 -32t154 -63.5t105 -31.5 q43 0 64.5 25t27.5 75h273q-24 -187 -113 -277.5t-227 -90.5q-69 0 -139 19t-115.5 42.5t-95.5 42.5t-84 19q-42 0 -66 -26t-25 -75h-272z" />
<glyph unicode="&#xf2;" horiz-adv-x="2037" d="M80 444q0 113 43 217t131.5 194t215 156t303.5 104t386 38q396 0 598.5 -123t202.5 -348q0 -142 -68 -268.5t-198.5 -225.5t-340.5 -157t-474 -58q-394 0 -596.5 122.5t-202.5 348.5zM520 485q0 -100 101 -148t325 -48q145 0 258 28.5t180.5 78t101.5 111.5t34 134 q0 101 -100.5 149t-325.5 48q-145 0 -258 -29t-180.5 -79t-101.5 -112t-34 -133zM551 1577h536l302 -332h-383z" />
<glyph unicode="&#xf3;" horiz-adv-x="2037" d="M80 444q0 113 43 217t131.5 194t215 156t303.5 104t386 38q396 0 598.5 -123t202.5 -348q0 -142 -68 -268.5t-198.5 -225.5t-340.5 -157t-474 -58q-394 0 -596.5 122.5t-202.5 348.5zM520 485q0 -100 101 -148t325 -48q145 0 258 28.5t180.5 78t101.5 111.5t34 134 q0 101 -100.5 149t-325.5 48q-145 0 -258 -29t-180.5 -79t-101.5 -112t-34 -133zM1010 1245l444 332h571l-616 -332h-399z" />
<glyph unicode="&#xf4;" horiz-adv-x="2037" d="M80 444q0 113 43 217t131.5 194t215 156t303.5 104t386 38q396 0 598.5 -123t202.5 -348q0 -142 -68 -268.5t-198.5 -225.5t-340.5 -157t-474 -58q-394 0 -596.5 122.5t-202.5 348.5zM520 485q0 -100 101 -148t325 -48q145 0 258 28.5t180.5 78t101.5 111.5t34 134 q0 101 -100.5 149t-325.5 48q-145 0 -258 -29t-180.5 -79t-101.5 -112t-34 -133zM588 1245l448 332h518l258 -332h-325l-219 152l-332 -152h-348z" />
<glyph unicode="&#xf5;" horiz-adv-x="2037" d="M80 444q0 113 43 217t131.5 194t215 156t303.5 104t386 38q396 0 598.5 -123t202.5 -348q0 -142 -68 -268.5t-198.5 -225.5t-340.5 -157t-474 -58q-394 0 -596.5 122.5t-202.5 348.5zM520 485q0 -100 101 -148t325 -48q145 0 258 28.5t180.5 78t101.5 111.5t34 134 q0 101 -100.5 149t-325.5 48q-145 0 -258 -29t-180.5 -79t-101.5 -112t-34 -133zM676 1245q27 187 121.5 280t230.5 93q76 0 161 -32t154 -63.5t105 -31.5q43 0 64.5 25t27.5 75h272q-24 -187 -112.5 -277.5t-226.5 -90.5q-69 0 -139 19t-116 42.5t-96 42.5t-84 19 q-42 0 -65.5 -26t-24.5 -75h-272z" />
<glyph unicode="&#xf6;" horiz-adv-x="2037" d="M80 444q0 113 43 217t131.5 194t215 156t303.5 104t386 38q396 0 598.5 -123t202.5 -348q0 -142 -68 -268.5t-198.5 -225.5t-340.5 -157t-474 -58q-394 0 -596.5 122.5t-202.5 348.5zM520 485q0 -100 101 -148t325 -48q145 0 258 28.5t180.5 78t101.5 111.5t34 134 q0 101 -100.5 149t-325.5 48q-145 0 -258 -29t-180.5 -79t-101.5 -112t-34 -133zM633 1245l90 332h471l-90 -332h-471zM1296 1245l88 332h471l-90 -332h-469z" />
<glyph unicode="&#xf7;" d="M137 575l82 306h1305l-82 -306h-1305zM467 123l82 311h403l-82 -311h-403zM707 1022l84 311h403l-84 -311h-403z" />
<glyph unicode="&#xf8;" horiz-adv-x="2035" d="M-45 0l246 156q-123 114 -123 288q0 113 43 217t132.5 194t216.5 156t305.5 104t389.5 38q310 0 504 -78l82 51h326l-242 -151q125 -113 125 -293q0 -113 -42.5 -217t-131.5 -194t-215.5 -156t-306 -104t-392.5 -38q-306 0 -505 80l-86 -53h-326zM518 485q0 -65 41 -106 l715 448q-94 11 -180 11q-146 0 -259 -29t-181 -79t-102 -112t-34 -133zM758 299q88 -10 186 -10q146 0 259 28.5t181 78t102 111.5t34 134q0 68 -43 111z" />
<glyph unicode="&#xf9;" horiz-adv-x="1990" d="M166 545l156 581h432l-146 -540q-34 -127 30.5 -201t233.5 -74q182 0 329.5 96.5t203.5 262.5l123 456h430l-301 -1126h-389l28 213q-246 -240 -628 -240q-319 0 -446.5 151.5t-55.5 420.5zM528 1577h537l301 -332h-383z" />
<glyph unicode="&#xfa;" horiz-adv-x="1990" d="M166 545l156 581h432l-146 -540q-34 -127 30.5 -201t233.5 -74q182 0 329.5 96.5t203.5 262.5l123 456h430l-301 -1126h-389l28 213q-246 -240 -628 -240q-319 0 -446.5 151.5t-55.5 420.5zM977 1245l444 332h572l-617 -332h-399z" />
<glyph unicode="&#xfb;" horiz-adv-x="1990" d="M166 545l156 581h432l-146 -540q-34 -127 30.5 -201t233.5 -74q182 0 329.5 96.5t203.5 262.5l123 456h430l-301 -1126h-389l28 213q-246 -240 -628 -240q-319 0 -446.5 151.5t-55.5 420.5zM565 1245l449 332h518l258 -332h-326l-219 152l-332 -152h-348z" />
<glyph unicode="&#xfc;" horiz-adv-x="1990" d="M166 545l156 581h432l-146 -540q-34 -127 30.5 -201t233.5 -74q182 0 329.5 96.5t203.5 262.5l123 456h430l-301 -1126h-389l28 213q-246 -240 -628 -240q-319 0 -446.5 151.5t-55.5 420.5zM612 1245l90 332h472l-91 -332h-471zM1276 1245l88 332h471l-90 -332h-469z" />
<glyph unicode="&#xfd;" horiz-adv-x="1777" d="M-115 -399l70 309q125 -19 213 -19q138 0 218 30.5t167 121.5l-397 1083h456l254 -741l559 741h500l-881 -1116q-108 -135 -206.5 -222.5t-200 -136.5t-200.5 -68t-226 -19q-201 0 -326 37zM870 1245l445 332h571l-616 -332h-400z" />
<glyph unicode="&#xfe;" horiz-adv-x="2129" d="M-76 -410l522 1946h433l-154 -569q248 186 653 186q321 0 496.5 -127t175.5 -352q0 -148 -65 -277t-180.5 -222.5t-285.5 -147.5t-370 -54q-234 0 -394 54.5t-239 156.5l-160 -594h-432zM618 565q-31 -134 82 -204t363 -70q137 0 244 27t172 73t98 104.5t33 125.5 q0 111 -101.5 163t-326.5 52q-235 0 -378 -64.5t-181 -187.5z" />
<glyph unicode="&#xff;" horiz-adv-x="1777" d="M-115 -399l70 309q125 -19 213 -19q138 0 218 30.5t167 121.5l-397 1083h456l254 -741l559 741h500l-881 -1116q-108 -135 -206.5 -222.5t-200 -136.5t-200.5 -68t-226 -19q-201 0 -326 37zM506 1245l90 332h471l-90 -332h-471zM1169 1245l88 332h472l-91 -332h-469z" />
<glyph unicode="&#x152;" horiz-adv-x="3608" d="M137 602q0 172 69 324t193.5 264.5t309.5 178t405 65.5h2603l-86 -322h-1278l-59 -221h1134l-86 -320h-1134l-68 -249h1292l-86 -322h-2433q-368 0 -572 156t-204 446zM600 645q0 -297 358 -297h750l197 737h-777q-242 0 -385 -125.5t-143 -314.5z" />
<glyph unicode="&#x153;" horiz-adv-x="3411" d="M80 444q0 113 43 217t131.5 194t215 156t303.5 104t386 38q434 0 643 -197q130 97 326.5 147t425.5 50q366 0 578 -126t212 -333q0 -125 -59 -229h-1364q21 -195 442 -195q408 0 476 119l411 -76q-108 -175 -337 -257.5t-619 -82.5q-220 0 -391.5 53.5t-255.5 157.5 q-304 -211 -779 -211q-387 0 -587.5 123t-200.5 348zM520 485q0 -100 99.5 -148t320.5 -48q282 0 424.5 100.5t142.5 251.5q0 101 -98 149t-319 48q-145 0 -257 -29t-178.5 -79t-100.5 -112t-34 -133zM1978 692h947q-3 69 -53 108.5t-135 53.5t-224 14q-407 0 -535 -176z " />
<glyph unicode="&#x178;" horiz-adv-x="2091" d="M207 1434h536l373 -543l645 543h592l-1087 -918l-140 -516h-452l147 549zM745 1552l91 332h471l-90 -332h-472zM1409 1552l88 332h471l-90 -332h-469z" />
<glyph unicode="&#x2c6;" horiz-adv-x="1024" d="M84 1245l448 332h519l258 -332h-326l-219 152l-332 -152h-348z" />
<glyph unicode="&#x2dc;" horiz-adv-x="1024" d="M172 1245q27 187 121.5 280t230.5 93q76 0 161 -32t154 -63.5t105 -31.5q43 0 64.5 25t27.5 75h273q-24 -187 -113 -277.5t-227 -90.5q-69 0 -139 19t-115.5 42.5t-95.5 42.5t-84 19q-42 0 -66 -26t-25 -75h-272z" />
<glyph unicode="&#x2000;" horiz-adv-x="1014" />
<glyph unicode="&#x2001;" horiz-adv-x="2028" />
<glyph unicode="&#x2002;" horiz-adv-x="1014" />
<glyph unicode="&#x2003;" horiz-adv-x="2028" />
<glyph unicode="&#x2004;" horiz-adv-x="676" />
<glyph unicode="&#x2005;" horiz-adv-x="507" />
<glyph unicode="&#x2006;" horiz-adv-x="338" />
<glyph unicode="&#x2007;" horiz-adv-x="338" />
<glyph unicode="&#x2008;" horiz-adv-x="253" />
<glyph unicode="&#x2009;" horiz-adv-x="405" />
<glyph unicode="&#x200a;" horiz-adv-x="112" />
<glyph unicode="&#x2010;" horiz-adv-x="1263" d="M59 436l95 350h1079l-94 -350h-1080z" />
<glyph unicode="&#x2011;" horiz-adv-x="1263" d="M59 436l95 350h1079l-94 -350h-1080z" />
<glyph unicode="&#x2012;" horiz-adv-x="1263" d="M59 436l95 350h1079l-94 -350h-1080z" />
<glyph unicode="&#x2013;" horiz-adv-x="1697" d="M59 436l95 350h1511l-92 -350h-1514z" />
<glyph unicode="&#x2014;" horiz-adv-x="3393" d="M59 436l95 350h3209l-94 -350h-3210z" />
<glyph unicode="&#x2018;" horiz-adv-x="827" d="M207 678l82 311q31 116 68 194t82 129.5t110 78t139 36t182 7.5l-45 -234q-128 2 -177.5 -26.5t-80.5 -120.5h197l-98 -375h-459z" />
<glyph unicode="&#x2019;" horiz-adv-x="825" d="M223 678l45 233q127 0 177 29t79 121h-194l100 373h459l-78 -291q-32 -117 -69.5 -197.5t-83.5 -134t-111 -82.5t-140.5 -40.5t-183.5 -10.5z" />
<glyph unicode="&#x201a;" horiz-adv-x="825" d="M-72 -381l45 231q128 -2 177.5 27t78.5 123h-194l98 373h459l-82 -310q-26 -98 -55 -168t-67 -120.5t-80 -81t-101.5 -48t-124 -23t-154.5 -3.5z" />
<glyph unicode="&#x201c;" horiz-adv-x="1468" d="M207 678l82 311q31 116 68 194t82 129.5t110 78t139 36t182 7.5l-45 -234q-128 2 -177.5 -26.5t-80.5 -120.5h197l-98 -375h-459zM848 678l82 311q32 116 69 194t82 129.5t110 78t139 36t183 7.5l-45 -234q-128 2 -177.5 -26.5t-80.5 -120.5h197l-100 -375h-459z" />
<glyph unicode="&#x201d;" horiz-adv-x="1468" d="M223 678l45 233q127 0 177 29t79 121h-194l100 373h459l-78 -291q-32 -117 -69.5 -197.5t-83.5 -134t-111 -82.5t-140.5 -40.5t-183.5 -10.5zM864 678l45 233q128 0 177.5 29t80.5 121h-196l102 373h457l-78 -291q-39 -146 -85.5 -236t-118.5 -142t-160 -70t-224 -17z " />
<glyph unicode="&#x201e;" horiz-adv-x="1468" d="M-72 -381l45 231q128 -2 177.5 27t78.5 123h-194l98 373h459l-82 -310q-26 -98 -55 -168t-67 -120.5t-80 -81t-101.5 -48t-124 -23t-154.5 -3.5zM569 -381l45 231q128 -2 177.5 27t80.5 123h-196l100 373h459l-82 -310q-26 -98 -55 -168t-67 -120.5t-80 -81t-102 -48 t-124.5 -23t-155.5 -3.5z" />
<glyph unicode="&#x2022;" horiz-adv-x="860" d="M137 432l142 526h518l-142 -526h-518z" />
<glyph unicode="&#x2026;" horiz-adv-x="2418" d="M35 0l100 373h459l-100 -373h-459zM831 0l101 373h459l-101 -373h-459zM1628 0l101 373h458l-100 -373h-459z" />
<glyph unicode="&#x202f;" horiz-adv-x="405" />
<glyph unicode="&#x2039;" horiz-adv-x="1054" d="M57 352l113 422l901 332l-104 -393l-549 -164l463 -162l-99 -367z" />
<glyph unicode="&#x203a;" horiz-adv-x="1054" d="M-14 20l108 406l529 160l-447 147l100 373l723 -332l-110 -422z" />
<glyph unicode="&#x205f;" horiz-adv-x="507" />
<glyph unicode="&#x20ac;" horiz-adv-x="2533" d="M63 496l43 163h201q6 62 25 132h-191l43 163h219q139 234 447.5 370t740.5 136q453 0 697.5 -126.5t259.5 -370.5l-469 -95q-8 124 -136.5 184t-392.5 60q-396 0 -606 -158h721l-66 -163h-790q-28 -67 -31 -132h768l-67 -163h-662q108 -174 522 -174q243 0 397 61 t236 190l449 -90q-90 -175 -233.5 -286t-369.5 -167.5t-546 -56.5q-427 0 -673 135.5t-286 387.5h-250z" />
<glyph unicode="&#x2122;" horiz-adv-x="2105" d="M223 1235l53 199h779l-51 -199h-271l-137 -518h-244l137 518h-266zM997 717l193 717h274l135 -357l308 357h297l-191 -717h-225l119 444l-273 -313h-153l-131 344l-127 -475h-226z" />
<glyph unicode="&#x25fc;" horiz-adv-x="1125" d="M0 0v1125h1125v-1125h-1125z" />
</font>
</defs>
</svg>
